<svg width="16" height="16" viewBox="0 0 16 16" fill="none" xmlns="http://www.w3.org/2000/svg">
<mask id="mask0_2853_19209" style="mask-type:alpha" maskUnits="userSpaceOnUse" x="0" y="0" width="16" height="16">
<rect width="16" height="16" fill="#D9D9D9"/>
</mask>
<g mask="url(#mask0_2853_19209)">
<path d="M11.6 8.66675L10.6666 7.73341L12.05 6.33341L10.6666 4.95008L11.6 4.00008L13 5.40008L14.3833 4.00008L15.3333 4.95008L13.9333 6.33341L15.3333 7.73341L14.3833 8.66675L13 7.28341L11.6 8.66675ZM5.99996 8.00008C5.26663 8.00008 4.63885 7.73897 4.11663 7.21675C3.5944 6.69453 3.33329 6.06675 3.33329 5.33341C3.33329 4.60008 3.5944 3.9723 4.11663 3.45008C4.63885 2.92786 5.26663 2.66675 5.99996 2.66675C6.73329 2.66675 7.36107 2.92786 7.88329 3.45008C8.40551 3.9723 8.66663 4.60008 8.66663 5.33341C8.66663 6.06675 8.40551 6.69453 7.88329 7.21675C7.36107 7.73897 6.73329 8.00008 5.99996 8.00008ZM0.666626 13.3334V11.4667C0.666626 11.089 0.763848 10.7417 0.958293 10.4251C1.15274 10.1084 1.41107 9.86675 1.73329 9.70008C2.42218 9.35564 3.12218 9.0973 3.83329 8.92508C4.5444 8.75286 5.26663 8.66675 5.99996 8.66675C6.73329 8.66675 7.45552 8.75286 8.16663 8.92508C8.87774 9.0973 9.57774 9.35564 10.2666 9.70008C10.5888 9.86675 10.8472 10.1084 11.0416 10.4251C11.2361 10.7417 11.3333 11.089 11.3333 11.4667V13.3334H0.666626ZM1.99996 12.0001H9.99996V11.4667C9.99996 11.3445 9.9694 11.2334 9.90829 11.1334C9.84718 11.0334 9.76663 10.9556 9.66663 10.9001C9.06663 10.6001 8.46107 10.3751 7.84996 10.2251C7.23885 10.0751 6.62218 10.0001 5.99996 10.0001C5.37774 10.0001 4.76107 10.0751 4.14996 10.2251C3.53885 10.3751 2.93329 10.6001 2.33329 10.9001C2.23329 10.9556 2.15274 11.0334 2.09163 11.1334C2.03051 11.2334 1.99996 11.3445 1.99996 11.4667V12.0001ZM5.99996 6.66675C6.36663 6.66675 6.68052 6.53619 6.94163 6.27508C7.20274 6.01397 7.33329 5.70008 7.33329 5.33341C7.33329 4.96675 7.20274 4.65286 6.94163 4.39175C6.68052 4.13064 6.36663 4.00008 5.99996 4.00008C5.63329 4.00008 5.3194 4.13064 5.05829 4.39175C4.79718 4.65286 4.66663 4.96675 4.66663 5.33341C4.66663 5.70008 4.79718 6.01397 5.05829 6.27508C5.3194 6.53619 5.63329 6.66675 5.99996 6.66675Z" fill="#1C1C1C"/>
</g>
</svg>
