<svg width="24" height="24" viewBox="0 0 24 24" fill="none" xmlns="http://www.w3.org/2000/svg">
<mask id="mask0_2908_9604" style="mask-type:alpha" maskUnits="userSpaceOnUse" x="0" y="0" width="24" height="24">
<rect width="24" height="24" fill="#D9D9D9"/>
</mask>
<g mask="url(#mask0_2908_9604)">
<path d="M4 20C3.45 20 2.97917 19.8042 2.5875 19.4125C2.19583 19.0208 2 18.55 2 18V6C2 5.45 2.19583 4.97917 2.5875 4.5875C2.97917 4.19583 3.45 4 4 4H20C20.55 4 21.0208 4.19583 21.4125 4.5875C21.8042 4.97917 22 5.45 22 6V18C22 18.55 21.8042 19.0208 21.4125 19.4125C21.0208 19.8042 20.55 20 20 20H4ZM4 18H20V6H4V18Z" fill="#161617"/>
<path d="M17.0753 16.5H19.0994V16.4386L15.6205 12.8591L15.6416 12.7977H15.8524C16.6114 12.7977 17.2405 12.5727 17.7395 12.1227C18.2385 11.6727 18.5442 11.1477 18.6566 10.5477H19.5V9.58636H18.6355C18.5934 9.38182 18.5196 9.1875 18.4142 9.00341C18.3087 8.81932 18.1787 8.63864 18.0241 8.46136H19.5V7.5H12.5V8.66591H15.7892C16.1546 8.66591 16.4533 8.75455 16.6852 8.93182C16.9172 9.10909 17.0753 9.32727 17.1596 9.58636H12.5V10.5477H17.1807C17.0964 10.8205 16.9347 11.0557 16.6958 11.2534C16.4568 11.4511 16.1335 11.55 15.7259 11.55H13.6175V12.8591L17.0753 16.5Z" fill="#161617"/>
<path d="M6.30113 8.14404C6.30113 8.55826 5.96534 8.89404 5.55113 8.89404C5.13692 8.89404 4.80113 8.55826 4.80113 8.14404C4.80113 7.72983 5.13692 7.39404 5.55113 7.39404C5.96534 7.39404 6.30113 7.72983 6.30113 8.14404Z" fill="#161617"/>
<path d="M6.30078 12.25C6.30078 12.6642 5.96499 13 5.55078 13C5.13657 13 4.80078 12.6642 4.80078 12.25C4.80078 11.8358 5.13657 11.5 5.55078 11.5C5.96499 11.5 6.30078 11.8358 6.30078 12.25Z" fill="#161617"/>
<path d="M6.30101 15.75C6.30101 16.1642 5.96522 16.5 5.55101 16.5C5.1368 16.5 4.80101 16.1642 4.80101 15.75C4.80101 15.3358 5.1368 15 5.55101 15C5.96522 15 6.30101 15.3358 6.30101 15.75Z" fill="#161617"/>
<path d="M7.5 8H9.5V8.12H7.5V8ZM7.5 12H9.5V12.12H7.5V12ZM7.5 15.88H9.5V16H7.5V15.88Z" fill="#D9D9D9" stroke="black"/>
<path d="M11 6H12V18H11V6Z" fill="#161617"/>
</g>
</svg>
