<svg width="17" height="17" viewBox="0 0 17 17" fill="none" xmlns="http://www.w3.org/2000/svg">
<mask id="mask0_2690_9405" style="mask-type:alpha" maskUnits="userSpaceOnUse" x="0" y="0" width="17" height="17">
<rect x="0.354492" y="0.527344" width="16" height="16" fill="#D9D9D9"/>
</mask>
<g mask="url(#mask0_2690_9405)">
<path d="M14.5879 12.5273H16.3545V11.4773C16.3545 10.9885 16.11 10.5968 15.6212 10.3023C15.1323 10.0079 14.4878 9.86068 13.6878 9.86068C13.5545 9.86068 13.4239 9.86346 13.2962 9.86901C13.1684 9.87457 13.0434 9.88845 12.9212 9.91068C13.0656 10.1329 13.1739 10.3718 13.2462 10.6273C13.3055 10.8372 13.3404 11.0582 13.351 11.2905L14.5879 12.5273Z" fill="#1C1B1F"/>
<path d="M9.8872 7.82665C10.1987 7.46127 10.3545 7.02817 10.3545 6.52734C10.3545 5.96068 10.1628 5.48568 9.77949 5.10234C9.39616 4.71901 8.92116 4.52734 8.35449 4.52734C7.85367 4.52734 7.42056 4.68311 7.05518 4.99464L8.01048 5.94993C8.11092 5.89043 8.22559 5.86068 8.35449 5.86068C8.54338 5.86068 8.70171 5.92457 8.82949 6.05234C8.95727 6.18012 9.02116 6.33845 9.02116 6.52734C9.02116 6.65624 8.99141 6.77091 8.9319 6.87136L9.8872 7.82665Z" fill="#1C1B1F"/>
<path d="M6.35697 6.41774C6.35532 6.45389 6.35449 6.49042 6.35449 6.52734C6.35449 7.0829 6.54894 7.55512 6.93783 7.94401C7.32671 8.3329 7.79894 8.52734 8.35449 8.52734C8.39142 8.52734 8.42795 8.52652 8.46409 8.52487L6.35697 6.41774Z" fill="#1C1B1F"/>
<path fill-rule="evenodd" clip-rule="evenodd" d="M8.98944 9.05021C8.78427 9.03497 8.57262 9.02734 8.35449 9.02734C7.77671 9.02734 7.2406 9.0829 6.74616 9.19401C6.25172 9.30512 5.82671 9.47179 5.47116 9.69401C5.1156 9.91623 4.8406 10.1746 4.64616 10.469C4.45171 10.7635 4.35449 11.0885 4.35449 11.444V12.5273H12.3545V12.4153L8.98944 9.05021ZM10.9545 11.194H5.77116C5.87116 10.9718 6.17394 10.7773 6.67949 10.6107C7.18505 10.444 7.74338 10.3607 8.35449 10.3607C8.9656 10.3607 9.52394 10.444 10.0295 10.6107C10.535 10.7773 10.8434 10.9718 10.9545 11.194Z" fill="#1C1B1F"/>
<path d="M0.354492 11.4773V12.5273H3.35449V11.444C3.35449 11.1662 3.39338 10.8996 3.47116 10.644C3.54894 10.3885 3.6656 10.144 3.82116 9.91068C3.69894 9.88845 3.57116 9.87457 3.43783 9.86901C3.30449 9.86346 3.1656 9.86068 3.02116 9.86068C2.22116 9.86068 1.57671 10.0107 1.08783 10.3107C0.598937 10.6107 0.354492 10.9996 0.354492 11.4773Z" fill="#1C1B1F"/>
<path d="M2.07949 8.80234C2.3406 9.06346 2.65449 9.19401 3.02116 9.19401C3.39894 9.19401 3.7156 9.06346 3.97116 8.80234C4.22671 8.54123 4.35449 8.22734 4.35449 7.86068C4.35449 7.4829 4.22671 7.16623 3.97116 6.91068C3.7156 6.65512 3.39894 6.52734 3.02116 6.52734C2.65449 6.52734 2.3406 6.65512 2.07949 6.91068C1.81838 7.16623 1.68783 7.4829 1.68783 7.86068C1.68783 8.22734 1.81838 8.54123 2.07949 8.80234Z" fill="#1C1B1F"/>
<path d="M12.7462 8.80234C13.0073 9.06346 13.3212 9.19401 13.6878 9.19401C14.0656 9.19401 14.3823 9.06346 14.6378 8.80234C14.8934 8.54123 15.0212 8.22734 15.0212 7.86068C15.0212 7.4829 14.8934 7.16623 14.6378 6.91068C14.3823 6.65512 14.0656 6.52734 13.6878 6.52734C13.3212 6.52734 13.0073 6.65512 12.7462 6.91068C12.485 7.16623 12.3545 7.4829 12.3545 7.86068C12.3545 8.22734 12.485 8.54123 12.7462 8.80234Z" fill="#1C1B1F"/>
<path fill-rule="evenodd" clip-rule="evenodd" d="M15 16.0607L1 2.06066L2.06066 1L16.0607 15L15 16.0607Z" fill="#1C1B1F"/>
</g>
</svg>
