<svg width="24" height="24" viewBox="0 0 24 24" fill="none" xmlns="http://www.w3.org/2000/svg">
<mask id="mask0_1694_18510" style="mask-type:alpha" maskUnits="userSpaceOnUse" x="0" y="0" width="24" height="24">
<rect width="24" height="24" fill="#D9D9D9"/>
</mask>
<g mask="url(#mask0_1694_18510)">
<path d="M8 14.1967L9.1392 12.5117L8.10829 11.039H9.02225L9.62866 12.0136H9.65032L10.2567 11.039H11.1707L10.1614 12.5074L11.3006 14.1967H10.3824L9.65032 13.0661H9.62866L8.89663 14.1967H8Z" fill="black"/>
<path d="M11.62 14.1967V11.039H12.3953V13.508H13.7554V14.1967H11.62Z" fill="black"/>
<path d="M15.2506 14.24C14.8175 14.24 14.4868 14.1447 14.2587 13.9541C14.0335 13.7635 13.9194 13.5123 13.9165 13.2004H14.7092C14.7092 13.3333 14.754 13.4416 14.8435 13.5253C14.933 13.6061 15.0803 13.6466 15.2853 13.6466C15.4326 13.6466 15.551 13.6206 15.6405 13.5686C15.73 13.5166 15.7748 13.4387 15.7748 13.3347C15.7748 13.2452 15.7545 13.1759 15.7141 13.1268C15.6766 13.0777 15.6073 13.0402 15.5062 13.0142C15.408 12.9853 15.268 12.9579 15.086 12.9319C14.7222 12.8741 14.4479 12.773 14.2631 12.6287C14.0782 12.4814 13.9858 12.2691 13.9858 11.9919C13.9858 11.6829 14.0985 11.4404 14.3237 11.2642C14.5489 11.0881 14.8594 11 15.255 11C15.5033 11 15.7199 11.0404 15.9047 11.1213C16.0895 11.1993 16.2325 11.309 16.3335 11.4505C16.4375 11.592 16.4895 11.7566 16.4895 11.9443H15.7098C15.7011 11.8114 15.6491 11.7176 15.5539 11.6627C15.4614 11.6079 15.3546 11.5804 15.2333 11.5804C15.0976 11.5804 14.9893 11.6093 14.9085 11.6671C14.8276 11.7219 14.7872 11.7956 14.7872 11.888C14.7872 11.9746 14.8117 12.0396 14.8608 12.0829C14.9099 12.1262 14.9864 12.1594 15.0904 12.1825C15.1972 12.2056 15.3358 12.2302 15.5062 12.2562C15.6362 12.2764 15.7647 12.3038 15.8917 12.3384C16.0188 12.3731 16.1343 12.4251 16.2382 12.4944C16.3422 12.5637 16.4259 12.659 16.4895 12.7803C16.553 12.9016 16.5848 13.0589 16.5848 13.2524C16.5848 13.5441 16.4736 13.7823 16.2512 13.9671C16.0289 14.149 15.6954 14.24 15.2506 14.24Z" fill="black"/>
<path d="M6 22C5.45 22 4.97917 21.8042 4.5875 21.4125C4.19583 21.0208 4 20.55 4 20V4C4 3.45 4.19583 2.97917 4.5875 2.5875C4.97917 2.19583 5.45 2 6 2H14L20 8V20C20 20.55 19.8042 21.0208 19.4125 21.4125C19.0208 21.8042 18.55 22 18 22H6ZM13 9V4H6V20H18V9H13Z" fill="#1C1B1F"/>
</g>
</svg>
