<svg width="24" height="24" viewBox="0 0 24 24" fill="none" xmlns="http://www.w3.org/2000/svg">
<mask id="mask0_1688_18487" style="mask-type:alpha" maskUnits="userSpaceOnUse" x="0" y="0" width="24" height="24">
<rect width="24" height="24" fill="#D9D9D9"/>
</mask>
<g mask="url(#mask0_1688_18487)">
<path d="M6 22C5.45 22 4.97917 21.8042 4.5875 21.4125C4.19583 21.0208 4 20.55 4 20V4C4 3.45 4.19583 2.97917 4.5875 2.5875C4.97917 2.19583 5.45 2 6 2H14L20 8V20C20 20.55 19.8042 21.0208 19.4125 21.4125C19.0208 21.8042 18.55 22 18 22H6ZM13 9V4H6V20H18V9H13Z" fill="#1C1B1F"/>
<path d="M7.66182 14.0371C7.54888 14.0371 7.43947 14.0265 7.33359 14.0053C7.2277 13.9876 7.143 13.9647 7.07947 13.9365V13.1794C7.12888 13.2041 7.18359 13.2253 7.24359 13.2429C7.30711 13.2571 7.3777 13.2641 7.45535 13.2641C7.63535 13.2641 7.76417 13.2235 7.84182 13.1424C7.923 13.0612 7.96359 12.9412 7.96359 12.7824V10.1406H8.91123V12.8459C8.91123 13.1318 8.85829 13.3629 8.75241 13.5394C8.65006 13.7124 8.50535 13.8394 8.31829 13.9206C8.13123 13.9982 7.91241 14.0371 7.66182 14.0371Z" fill="black"/>
<path d="M9.69249 14V10.1406H11.3972C11.676 10.1406 11.9195 10.1918 12.1278 10.2941C12.3395 10.3929 12.5037 10.5394 12.6201 10.7335C12.7366 10.9241 12.7948 11.1553 12.7948 11.4271C12.7948 11.6847 12.7401 11.9124 12.6307 12.11C12.5213 12.3041 12.3625 12.4559 12.1543 12.5653C11.946 12.6747 11.6937 12.7294 11.3972 12.7294H10.6401V14H9.69249ZM11.2278 10.94H10.6401V11.9988H11.2278C11.3266 11.9988 11.4219 11.9847 11.5137 11.9565C11.6054 11.9282 11.6795 11.8753 11.736 11.7976C11.796 11.72 11.826 11.6088 11.826 11.4641C11.826 11.3229 11.796 11.2153 11.736 11.1412C11.6795 11.0635 11.6054 11.0106 11.5137 10.9824C11.4219 10.9541 11.3266 10.94 11.2278 10.94Z" fill="black"/>
<path d="M15.0524 14.0529C14.6465 14.0529 14.3006 13.97 14.0148 13.8041C13.7289 13.6382 13.5101 13.4071 13.3583 13.1106C13.2065 12.8106 13.1306 12.4629 13.1306 12.0676C13.1306 11.6476 13.2118 11.2912 13.3742 10.9982C13.5401 10.7018 13.7695 10.4759 14.0624 10.3206C14.3589 10.1653 14.703 10.0876 15.0948 10.0876C15.4477 10.0876 15.753 10.1459 16.0106 10.2624C16.2718 10.3753 16.4783 10.5341 16.6301 10.7388C16.7818 10.94 16.8736 11.1765 16.9054 11.4482H15.9259C15.8871 11.2753 15.7936 11.1412 15.6454 11.0459C15.5006 10.9471 15.3171 10.8976 15.0948 10.8976C14.7948 10.8976 14.5548 10.9929 14.3748 11.1835C14.1948 11.3706 14.1048 11.6653 14.1048 12.0676C14.1048 12.4735 14.1912 12.7753 14.3642 12.9729C14.5371 13.1671 14.7718 13.2641 15.0683 13.2641C15.333 13.2641 15.5465 13.2041 15.7089 13.0841C15.8712 12.9606 15.9683 12.7947 16.0001 12.5865H15.0312V11.9194H16.9689V12.3376C16.9689 12.68 16.8895 12.98 16.7306 13.2376C16.5718 13.4953 16.3477 13.6965 16.0583 13.8412C15.7724 13.9824 15.4371 14.0529 15.0524 14.0529Z" fill="black"/>
</g>
</svg>
