<svg width="24" height="24" viewBox="0 0 24 24" fill="none" xmlns="http://www.w3.org/2000/svg">
<mask id="mask0_446_12983" style="mask-type:alpha" maskUnits="userSpaceOnUse" x="0" y="0" width="24" height="24">
<rect width="24" height="24" fill="#D9D9D9"/>
</mask>
<g mask="url(#mask0_446_12983)">
<path d="M6 22C5.45 22 4.97917 21.8042 4.5875 21.4125C4.19583 21.0208 4 20.55 4 20V4C4 3.45 4.19583 2.97917 4.5875 2.5875C4.97917 2.19583 5.45 2 6 2H14L20 8V20C20 20.55 19.8042 21.0208 19.4125 21.4125C19.0208 21.8042 18.55 22 18 22H6ZM13 9V4H6V20H18V9H13Z" fill="#1C1B1F"/>
<path d="M7.37 15V11.355H8.98C9.24333 11.355 9.47333 11.4033 9.67 11.5C9.87 11.5933 10.025 11.7317 10.135 11.915C10.245 12.095 10.3 12.3133 10.3 12.57C10.3 12.8133 10.2483 13.0283 10.145 13.215C10.0417 13.3983 9.89167 13.5417 9.695 13.645C9.49833 13.7483 9.26 13.8 8.98 13.8H8.265V15H7.37ZM8.82 12.11H8.265V13.11H8.82C8.91333 13.11 9.00333 13.0967 9.09 13.07C9.17667 13.0433 9.24667 12.9933 9.3 12.92C9.35667 12.8467 9.385 12.7417 9.385 12.605C9.385 12.4717 9.35667 12.37 9.3 12.3C9.24667 12.2267 9.17667 12.1767 9.09 12.15C9.00333 12.1233 8.91333 12.11 8.82 12.11Z" fill="black"/>
<path d="M10.7733 15V11.355H12.3683C12.735 11.355 13.0433 11.4317 13.2933 11.585C13.5467 11.7383 13.7383 11.9517 13.8683 12.225C13.9983 12.4983 14.0633 12.8167 14.0633 13.18C14.0633 13.5433 13.9983 13.8617 13.8683 14.135C13.7383 14.4083 13.5467 14.6217 13.2933 14.775C13.0433 14.925 12.735 15 12.3683 15H10.7733ZM11.6683 14.24H12.2183C12.3917 14.24 12.5483 14.21 12.6883 14.15C12.8283 14.09 12.94 13.9833 13.0233 13.83C13.1067 13.6733 13.1483 13.45 13.1483 13.16C13.1483 12.8867 13.1067 12.675 13.0233 12.525C12.9433 12.3717 12.8333 12.265 12.6933 12.205C12.5533 12.145 12.395 12.115 12.2183 12.115H11.6683V14.24Z" fill="black"/>
<path d="M14.5966 15V11.355H17.2916V12.12H15.4916V12.91H17.0916V13.63H15.4916V15H14.5966Z" fill="black"/>
</g>
</svg>
