<svg width="24" height="24" viewBox="0 0 24 24" fill="none" xmlns="http://www.w3.org/2000/svg">
<mask id="mask0_1694_18504" style="mask-type:alpha" maskUnits="userSpaceOnUse" x="0" y="0" width="24" height="24">
<rect width="24" height="24" fill="#D9D9D9"/>
</mask>
<g mask="url(#mask0_1694_18504)">
<path d="M7 14.2644V11.0442H8.40912C8.73306 11.0442 9.00546 11.1119 9.22633 11.2474C9.45014 11.3828 9.61947 11.5713 9.73432 11.8128C9.84917 12.0543 9.90659 12.3355 9.90659 12.6565C9.90659 12.9775 9.84917 13.2587 9.73432 13.5002C9.61947 13.7417 9.45014 13.9302 9.22633 14.0656C9.00546 14.1981 8.73306 14.2644 8.40912 14.2644H7ZM7.7907 13.593H8.2766C8.42974 13.593 8.56815 13.5665 8.69183 13.5135C8.81552 13.4604 8.91417 13.3662 8.98779 13.2307C9.06141 13.0923 9.09822 12.895 9.09822 12.6388C9.09822 12.3973 9.06141 12.2103 8.98779 12.0778C8.91711 11.9424 8.81993 11.8481 8.69625 11.7951C8.57256 11.7421 8.43268 11.7156 8.2766 11.7156H7.7907V13.593Z" fill="black"/>
<path d="M11.874 14.3086C11.5471 14.3086 11.2615 14.2438 11.0171 14.1142C10.7726 13.9846 10.5827 13.7976 10.4472 13.5532C10.3118 13.3058 10.244 13.0055 10.244 12.6521C10.244 12.2987 10.3118 11.9998 10.4472 11.7554C10.5827 11.5109 10.7726 11.3239 11.0171 11.1944C11.2615 11.0648 11.5471 11 11.874 11C12.2009 11 12.4866 11.0648 12.731 11.1944C12.9754 11.3239 13.1653 11.5124 13.3008 11.7598C13.4392 12.0042 13.5084 12.3016 13.5084 12.6521C13.5084 13.0055 13.4392 13.3058 13.3008 13.5532C13.1653 13.8006 12.9754 13.989 12.731 14.1186C12.4866 14.2453 12.2009 14.3086 11.874 14.3086ZM11.874 13.6327C12.1214 13.6327 12.3202 13.5532 12.4704 13.3942C12.6205 13.2352 12.6956 12.9878 12.6956 12.6521C12.6956 12.3193 12.6205 12.0734 12.4704 11.9144C12.3202 11.7554 12.1214 11.6758 11.874 11.6758C11.6267 11.6758 11.4279 11.7554 11.2777 11.9144C11.1304 12.0705 11.0568 12.3164 11.0568 12.6521C11.0568 12.9907 11.1319 13.2396 11.2821 13.3986C11.4323 13.5547 11.6296 13.6327 11.874 13.6327Z" fill="black"/>
<path d="M15.4804 14.3086C15.1536 14.3086 14.8679 14.2438 14.6235 14.1142C14.3791 13.9846 14.1876 13.7976 14.0492 13.5532C13.9138 13.3058 13.846 13.0055 13.846 12.6521C13.846 12.3016 13.9138 12.0042 14.0492 11.7598C14.1876 11.5124 14.3791 11.3239 14.6235 11.1944C14.8679 11.0648 15.1536 11 15.4804 11C15.7602 11 16.0091 11.0486 16.227 11.1458C16.4478 11.243 16.6245 11.3799 16.757 11.5566C16.8925 11.7303 16.9735 11.9335 17 12.1662H16.196C16.1607 12.0219 16.0783 11.9041 15.9487 11.8128C15.8221 11.7215 15.666 11.6758 15.4804 11.6758C15.2301 11.6758 15.0299 11.7554 14.8797 11.9144C14.7324 12.0705 14.6588 12.3164 14.6588 12.6521C14.6588 12.9907 14.7324 13.2396 14.8797 13.3986C15.0299 13.5547 15.2301 13.6327 15.4804 13.6327C15.6601 13.6327 15.8162 13.5885 15.9487 13.5002C16.0812 13.4089 16.1637 13.2882 16.196 13.138H17C16.9735 13.3706 16.891 13.5753 16.7526 13.752C16.6172 13.9257 16.439 14.0627 16.2181 14.1628C16.0002 14.26 15.7543 14.3086 15.4804 14.3086Z" fill="black"/>
<path d="M6 22C5.45 22 4.97917 21.8042 4.5875 21.4125C4.19583 21.0208 4 20.55 4 20V4C4 3.45 4.19583 2.97917 4.5875 2.5875C4.97917 2.19583 5.45 2 6 2H14L20 8V20C20 20.55 19.8042 21.0208 19.4125 21.4125C19.0208 21.8042 18.55 22 18 22H6ZM13 9V4H6V20H18V9H13Z" fill="#1C1B1F"/>
</g>
</svg>
