<svg width="17" height="17" viewBox="0 0 17 17" fill="none" xmlns="http://www.w3.org/2000/svg">
<mask id="mask0_3273_12442" style="mask-type:alpha" maskUnits="userSpaceOnUse" x="0" y="0" width="17" height="17">
<rect x="0.176758" y="0.905273" width="16" height="16" fill="#D9D9D9"/>
</mask>
<g mask="url(#mask0_3273_12442)">
<path d="M8.17643 15.5716C7.25421 15.5716 6.38754 15.3966 5.57643 15.0466C4.76532 14.6966 4.05977 14.2216 3.45977 13.6216C2.85977 13.0216 2.38477 12.3161 2.03477 11.5049C1.68477 10.6938 1.50977 9.82717 1.50977 8.90495C1.50977 7.43828 1.93754 6.11884 2.7931 4.94661C3.64865 3.77439 4.77643 2.97161 6.17643 2.53828V3.97161C5.16532 4.38273 4.35699 5.0355 3.75143 5.92995C3.14588 6.82439 2.8431 7.81606 2.8431 8.90495C2.8431 10.3938 3.35977 11.6549 4.3931 12.6883C5.42643 13.7216 6.68754 14.2383 8.17643 14.2383C9.66532 14.2383 10.9264 13.7216 11.9598 12.6883C12.9931 11.6549 13.5098 10.3938 13.5098 8.90495C13.5098 7.81606 13.207 6.82439 12.6014 5.92995C11.9959 5.0355 11.1875 4.38273 10.1764 3.97161V2.53828C11.5764 2.97161 12.7042 3.77439 13.5598 4.94661C14.4153 6.11884 14.8431 7.43828 14.8431 8.90495C14.8431 9.82717 14.6681 10.6938 14.3181 11.5049C13.9681 12.3161 13.4931 13.0216 12.8931 13.6216C12.2931 14.2216 11.5875 14.6966 10.7764 15.0466C9.96532 15.3966 9.09865 15.5716 8.17643 15.5716ZM8.17643 11.5716L4.8431 8.23828L5.77643 7.30495L7.50977 9.02161V2.23828H8.8431V9.02161L10.5764 7.30495L11.5098 8.23828L8.17643 11.5716Z" fill="#1C1C1C"/>
</g>
</svg>
