<svg width="24" height="24" viewBox="0 0 24 24" fill="none" xmlns="http://www.w3.org/2000/svg">
<mask id="mask0_3300_12429" style="mask-type:alpha" maskUnits="userSpaceOnUse" x="0" y="0" width="24" height="24">
<rect width="24" height="24" fill="#D9D9D9"/>
</mask>
<g mask="url(#mask0_3300_12429)">
<path d="M12 22C10.6167 22 9.31667 21.7375 8.1 21.2125C6.88333 20.6875 5.825 19.975 4.925 19.075C4.025 18.175 3.3125 17.1167 2.7875 15.9C2.2625 14.6833 2 13.3833 2 12C2 9.8 2.64167 7.82083 3.925 6.0625C5.20833 4.30417 6.9 3.1 9 2.45V4.6C7.48333 5.21667 6.27083 6.19583 5.3625 7.5375C4.45417 8.87917 4 10.3667 4 12C4 14.2333 4.775 16.125 6.325 17.675C7.875 19.225 9.76667 20 12 20C14.2333 20 16.125 19.225 17.675 17.675C19.225 16.125 20 14.2333 20 12C20 10.3667 19.5458 8.87917 18.6375 7.5375C17.7292 6.19583 16.5167 5.21667 15 4.6V2.45C17.1 3.1 18.7917 4.30417 20.075 6.0625C21.3583 7.82083 22 9.8 22 12C22 13.3833 21.7375 14.6833 21.2125 15.9C20.6875 17.1167 19.975 18.175 19.075 19.075C18.175 19.975 17.1167 20.6875 15.9 21.2125C14.6833 21.7375 13.3833 22 12 22ZM12 16L7 11L8.4 9.6L11 12.175V2H13V12.175L15.6 9.6L17 11L12 16Z" fill="white"/>
</g>
</svg>
