<svg width="204" height="36" viewBox="0 0 204 36" fill="none" xmlns="http://www.w3.org/2000/svg">
<path d="M106 10.1191C56.4 0.919103 14.6667 20.2858 0 31.1191V35.1191C40 9.11914 87.3333 7.61912 106 10.1191Z" fill="#001489"/>
<path d="M107 7.11883C60.5 -3.38109 17.3333 11.4522 0 20.1188V25.6187C39.5 0.618895 89.5 4.28055 107 7.11883Z" fill="#001489"/>
<path d="M119.5 8C165.5 13.5 189 6 204 0V4C170.5 14 133.5 11.5 119.5 8Z" fill="#001489"/>
<path d="M107 11.1885C150.365 18.3578 189.735 12.9808 204 8.5V12.9808C158.353 20.5982 119.553 13.877 107 11.1885Z" fill="#001489"/>
</svg>
