<svg width="24" height="24" viewBox="0 0 24 24" fill="none" xmlns="http://www.w3.org/2000/svg">
<mask id="mask0_2269_11820" style="mask-type:alpha" maskUnits="userSpaceOnUse" x="0" y="0" width="24" height="24">
<rect width="24" height="24" fill="#D9D9D9"/>
</mask>
<g mask="url(#mask0_2269_11820)">
<path fill-rule="evenodd" clip-rule="evenodd" d="M8.47059 4.35294C8.31458 4.35294 8.16496 4.41492 8.05464 4.52523C7.94433 4.63555 7.88235 4.78517 7.88235 4.94118V19.6471H16.1176V4.94118C16.1176 4.78517 16.0557 4.63555 15.9454 4.52523C15.835 4.41492 15.6854 4.35294 15.5294 4.35294H8.47059ZM18.4706 8.17647V4.94118C18.4706 4.16113 18.1607 3.41303 17.6091 2.86145C17.0576 2.30987 16.3095 2 15.5294 2H8.47059C7.69054 2 6.94244 2.30987 6.39086 2.86145C5.83928 3.41303 5.52941 4.16113 5.52941 4.94118V10.8235H4.94118C4.16113 10.8235 3.41303 11.1334 2.86145 11.685C2.30987 12.2366 2 12.9847 2 13.7647V19.0588C2 19.8389 2.30987 20.587 2.86145 21.1385C3.41303 21.6901 4.16113 22 4.94118 22H19.0588C19.8389 22 20.587 21.6901 21.1385 21.1385C21.6901 20.587 22 19.8389 22 19.0588V11.1176C22 10.3376 21.6901 9.5895 21.1385 9.03792C20.587 8.48634 19.8389 8.17647 19.0588 8.17647H18.4706ZM18.4706 10.5294V19.6471H19.0588C19.2148 19.6471 19.3645 19.5851 19.4748 19.4748C19.5851 19.3645 19.6471 19.2148 19.6471 19.0588V11.1176C19.6471 10.9616 19.5851 10.812 19.4748 10.7017C19.3645 10.5914 19.2148 10.5294 19.0588 10.5294H18.4706ZM5.52941 13.1765H4.94118C4.78517 13.1765 4.63555 13.2384 4.52523 13.3488C4.41492 13.4591 4.35294 13.6087 4.35294 13.7647V19.0588C4.35294 19.2148 4.41492 19.3645 4.52523 19.4748C4.63555 19.5851 4.78517 19.6471 4.94118 19.6471H5.52941V13.1765ZM9.05882 6.70588C9.05882 6.05614 9.58555 5.52941 10.2353 5.52941H13.7647C14.4145 5.52941 14.9412 6.05614 14.9412 6.70588C14.9412 7.35563 14.4145 7.88235 13.7647 7.88235H10.2353C9.58555 7.88235 9.05882 7.35563 9.05882 6.70588ZM9.05882 10.2353C9.05882 9.58555 9.58555 9.05882 10.2353 9.05882H13.7647C14.4145 9.05882 14.9412 9.58555 14.9412 10.2353C14.9412 10.885 14.4145 11.4118 13.7647 11.4118H10.2353C9.58555 11.4118 9.05882 10.885 9.05882 10.2353ZM9.05882 13.7647C9.05882 13.115 9.58555 12.5882 10.2353 12.5882H13.7647C14.4145 12.5882 14.9412 13.115 14.9412 13.7647C14.9412 14.4145 14.4145 14.9412 13.7647 14.9412H10.2353C9.58555 14.9412 9.05882 14.4145 9.05882 13.7647ZM9.05882 17.2941C9.05882 16.6444 9.58555 16.1176 10.2353 16.1176H13.7647C14.4145 16.1176 14.9412 16.6444 14.9412 17.2941C14.9412 17.9439 14.4145 18.4706 13.7647 18.4706H10.2353C9.58555 18.4706 9.05882 17.9439 9.05882 17.2941Z" fill="black"/>
</g>
</svg>
