<svg width="16" height="16" viewBox="0 0 16 16" fill="none" xmlns="http://www.w3.org/2000/svg">
<mask id="mask0_3669_9558" style="mask-type:alpha" maskUnits="userSpaceOnUse" x="0" y="0" width="16" height="16">
<rect width="16" height="16" fill="#D9D9D9"/>
</mask>
<g mask="url(#mask0_3669_9558)">
<path d="M5.33333 11.3333C5.52222 11.3333 5.68056 11.2694 5.80833 11.1417C5.93611 11.0139 6 10.8556 6 10.6667C6 10.4778 5.93611 10.3194 5.80833 10.1917C5.68056 10.0639 5.52222 10 5.33333 10C5.14444 10 4.98611 10.0639 4.85833 10.1917C4.73056 10.3194 4.66667 10.4778 4.66667 10.6667C4.66667 10.8556 4.73056 11.0139 4.85833 11.1417C4.98611 11.2694 5.14444 11.3333 5.33333 11.3333ZM5.33333 8.66667C5.52222 8.66667 5.68056 8.60278 5.80833 8.475C5.93611 8.34722 6 8.18889 6 8C6 7.81111 5.93611 7.65278 5.80833 7.525C5.68056 7.39722 5.52222 7.33333 5.33333 7.33333C5.14444 7.33333 4.98611 7.39722 4.85833 7.525C4.73056 7.65278 4.66667 7.81111 4.66667 8C4.66667 8.18889 4.73056 8.34722 4.85833 8.475C4.98611 8.60278 5.14444 8.66667 5.33333 8.66667ZM5.33333 6C5.52222 6 5.68056 5.93611 5.80833 5.80833C5.93611 5.68056 6 5.52222 6 5.33333C6 5.14444 5.93611 4.98611 5.80833 4.85833C5.68056 4.73056 5.52222 4.66667 5.33333 4.66667C5.14444 4.66667 4.98611 4.73056 4.85833 4.85833C4.73056 4.98611 4.66667 5.14444 4.66667 5.33333C4.66667 5.52222 4.73056 5.68056 4.85833 5.80833C4.98611 5.93611 5.14444 6 5.33333 6ZM7.33333 11.3333H11.3333V10H7.33333V11.3333ZM7.33333 8.66667H11.3333V7.33333H7.33333V8.66667ZM7.33333 6H11.3333V4.66667H7.33333V6ZM3.33333 14C2.96667 14 2.65278 13.8694 2.39167 13.6083C2.13056 13.3472 2 13.0333 2 12.6667V3.33333C2 2.96667 2.13056 2.65278 2.39167 2.39167C2.65278 2.13056 2.96667 2 3.33333 2H12.6667C13.0333 2 13.3472 2.13056 13.6083 2.39167C13.8694 2.65278 14 2.96667 14 3.33333V12.6667C14 13.0333 13.8694 13.3472 13.6083 13.6083C13.3472 13.8694 13.0333 14 12.6667 14H3.33333ZM3.33333 12.6667H12.6667V3.33333H3.33333V12.6667Z" fill="#161617"/>
</g>
</svg>
