<svg width="16" height="16" viewBox="0 0 16 16" fill="none" xmlns="http://www.w3.org/2000/svg">
<mask id="mask0_3669_9562" style="mask-type:alpha" maskUnits="userSpaceOnUse" x="0" y="0" width="16" height="16">
<rect width="16" height="16" fill="#D9D9D9"/>
</mask>
<g mask="url(#mask0_3669_9562)">
<path d="M2.66634 13.3332C2.29967 13.3332 1.98579 13.2026 1.72467 12.9415C1.46356 12.6804 1.33301 12.3665 1.33301 11.9998V3.99984C1.33301 3.63317 1.46356 3.31928 1.72467 3.05817C1.98579 2.79706 2.29967 2.6665 2.66634 2.6665H13.333C13.6997 2.6665 14.0136 2.79706 14.2747 3.05817C14.5358 3.31928 14.6663 3.63317 14.6663 3.99984V11.9998C14.6663 12.3665 14.5358 12.6804 14.2747 12.9415C14.0136 13.2026 13.6997 13.3332 13.333 13.3332H2.66634ZM2.66634 11.9998H13.333V3.99984H2.66634V11.9998Z" fill="#161617"/>
<path d="M8.38321 10.9998H9.73261V10.9589L7.41333 8.57256L7.42738 8.53166H7.56795C8.07397 8.53166 8.49332 8.38166 8.82598 8.08166C9.15864 7.78166 9.36246 7.43166 9.43743 7.03166H9.99967V6.39075H9.42337C9.39526 6.25438 9.34606 6.12484 9.27578 6.00211C9.2055 5.87938 9.11882 5.75893 9.01574 5.64075H9.99967V4.99984H5.33301V5.77711H7.52578C7.76942 5.77711 7.96855 5.8362 8.12317 5.95438C8.27779 6.07256 8.38321 6.21802 8.43943 6.39075H5.33301V7.03166H8.45349C8.39726 7.21347 8.2895 7.37029 8.1302 7.50211C7.97089 7.63393 7.75536 7.69984 7.48361 7.69984H6.07799V8.57256L8.38321 10.9998Z" fill="#161617"/>
</g>
</svg>
