<svg width="24" height="24" viewBox="0 0 24 24" fill="none" xmlns="http://www.w3.org/2000/svg">
<mask id="mask0_1378_17875" style="mask-type:alpha" maskUnits="userSpaceOnUse" x="0" y="0" width="24" height="24">
<rect width="24" height="24" fill="#D9D9D9"/>
</mask>
<g mask="url(#mask0_1378_17875)">
<path d="M4 20C3.45 20 2.97917 19.8042 2.5875 19.4125C2.19583 19.0208 2 18.55 2 18V6C2 5.45 2.19583 4.97917 2.5875 4.5875C2.97917 4.19583 3.45 4 4 4H20C20.55 4 21.0208 4.19583 21.4125 4.5875C21.8042 4.97917 22 5.45 22 6V18C22 18.55 21.8042 19.0208 21.4125 19.4125C21.0208 19.8042 20.55 20 20 20H4ZM4 18H20V6H4V18Z" fill="#0A66C2"/>
<path d="M12.5753 16.5H14.5994V16.4386L11.1205 12.8591L11.1416 12.7977H11.3524C12.1114 12.7977 12.7405 12.5727 13.2395 12.1227C13.7385 11.6727 14.0442 11.1477 14.1566 10.5477H15V9.58636H14.1355C14.0934 9.38182 14.0196 9.1875 13.9142 9.00341C13.8087 8.81932 13.6787 8.63864 13.5241 8.46136H15V7.5H8V8.66591H11.2892C11.6546 8.66591 11.9533 8.75455 12.1852 8.93182C12.4172 9.10909 12.5753 9.32727 12.6596 9.58636H8V10.5477H12.6807C12.5964 10.8205 12.4347 11.0557 12.1958 11.2534C11.9568 11.4511 11.6335 11.55 11.2259 11.55H9.11747V12.8591L12.5753 16.5Z" fill="#0A66C2"/>
</g>
</svg>
