<svg width="55" height="55" viewBox="0 0 55 55" fill="none" xmlns="http://www.w3.org/2000/svg">
<g clip-path="url(#clip0_3167_10178)">
<path d="M55 0H0V55H55V0Z" fill="white"/>
<path d="M5.09698 3.4375H3.4375V5.09698H5.09698V3.4375Z" fill="black"/>
<path d="M6.75647 3.4375H5.09698V5.09698H6.75647V3.4375Z" fill="black"/>
<path d="M8.41595 3.4375H6.75647V5.09698H8.41595V3.4375Z" fill="black"/>
<path d="M10.0754 3.4375H8.41595V5.09698H10.0754V3.4375Z" fill="black"/>
<path d="M11.7349 3.4375H10.0754V5.09698H11.7349V3.4375Z" fill="black"/>
<path d="M13.3944 3.4375H11.7349V5.09698H13.3944V3.4375Z" fill="black"/>
<path d="M15.0539 3.4375H13.3944V5.09698H15.0539V3.4375Z" fill="black"/>
<path d="M18.3728 3.4375H16.7134V5.09698H18.3728V3.4375Z" fill="black"/>
<path d="M25.0108 3.4375H23.3513V5.09698H25.0108V3.4375Z" fill="black"/>
<path d="M26.6703 3.4375H25.0108V5.09698H26.6703V3.4375Z" fill="black"/>
<path d="M29.9892 3.4375H28.3297V5.09698H29.9892V3.4375Z" fill="black"/>
<path d="M34.9677 3.4375H33.3082V5.09698H34.9677V3.4375Z" fill="black"/>
<path d="M41.6056 3.4375H39.9461V5.09698H41.6056V3.4375Z" fill="black"/>
<path d="M43.2651 3.4375H41.6056V5.09698H43.2651V3.4375Z" fill="black"/>
<path d="M44.9246 3.4375H43.2651V5.09698H44.9246V3.4375Z" fill="black"/>
<path d="M46.5841 3.4375H44.9246V5.09698H46.5841V3.4375Z" fill="black"/>
<path d="M48.2435 3.4375H46.5841V5.09698H48.2435V3.4375Z" fill="black"/>
<path d="M49.903 3.4375H48.2435V5.09698H49.903V3.4375Z" fill="black"/>
<path d="M51.5625 3.4375H49.903V5.09698H51.5625V3.4375Z" fill="black"/>
<path d="M5.09698 5.09698H3.4375V6.75647H5.09698V5.09698Z" fill="black"/>
<path d="M15.0539 5.09698H13.3944V6.75647H15.0539V5.09698Z" fill="black"/>
<path d="M21.6918 5.09698H20.0323V6.75647H21.6918V5.09698Z" fill="black"/>
<path d="M26.6703 5.09698H25.0108V6.75647H26.6703V5.09698Z" fill="black"/>
<path d="M33.3082 5.09698H31.6487V6.75647H33.3082V5.09698Z" fill="black"/>
<path d="M38.2866 5.09698H36.6272V6.75647H38.2866V5.09698Z" fill="black"/>
<path d="M41.6056 5.09698H39.9461V6.75647H41.6056V5.09698Z" fill="black"/>
<path d="M51.5625 5.09698H49.903V6.75647H51.5625V5.09698Z" fill="black"/>
<path d="M5.09698 6.75647H3.4375V8.41595H5.09698V6.75647Z" fill="black"/>
<path d="M8.41595 6.75647H6.75647V8.41595H8.41595V6.75647Z" fill="black"/>
<path d="M10.0754 6.75647H8.41595V8.41595H10.0754V6.75647Z" fill="black"/>
<path d="M11.7349 6.75647H10.0754V8.41595H11.7349V6.75647Z" fill="black"/>
<path d="M15.0539 6.75647H13.3944V8.41595H15.0539V6.75647Z" fill="black"/>
<path d="M18.3728 6.75647H16.7134V8.41595H18.3728V6.75647Z" fill="black"/>
<path d="M20.0323 6.75647H18.3728V8.41595H20.0323V6.75647Z" fill="black"/>
<path d="M21.6918 6.75647H20.0323V8.41595H21.6918V6.75647Z" fill="black"/>
<path d="M23.3513 6.75647H21.6918V8.41595H23.3513V6.75647Z" fill="black"/>
<path d="M28.3297 6.75647H26.6703V8.41595H28.3297V6.75647Z" fill="black"/>
<path d="M31.6487 6.75647H29.9892V8.41595H31.6487V6.75647Z" fill="black"/>
<path d="M34.9677 6.75647H33.3082V8.41595H34.9677V6.75647Z" fill="black"/>
<path d="M38.2866 6.75647H36.6272V8.41595H38.2866V6.75647Z" fill="black"/>
<path d="M41.6056 6.75647H39.9461V8.41595H41.6056V6.75647Z" fill="black"/>
<path d="M44.9246 6.75647H43.2651V8.41595H44.9246V6.75647Z" fill="black"/>
<path d="M46.5841 6.75647H44.9246V8.41595H46.5841V6.75647Z" fill="black"/>
<path d="M48.2435 6.75647H46.5841V8.41595H48.2435V6.75647Z" fill="black"/>
<path d="M51.5625 6.75647H49.903V8.41595H51.5625V6.75647Z" fill="black"/>
<path d="M5.09698 8.41595H3.4375V10.0754H5.09698V8.41595Z" fill="black"/>
<path d="M8.41595 8.41595H6.75647V10.0754H8.41595V8.41595Z" fill="black"/>
<path d="M10.0754 8.41595H8.41595V10.0754H10.0754V8.41595Z" fill="black"/>
<path d="M11.7349 8.41595H10.0754V10.0754H11.7349V8.41595Z" fill="black"/>
<path d="M15.0539 8.41595H13.3944V10.0754H15.0539V8.41595Z" fill="black"/>
<path d="M18.3728 8.41595H16.7134V10.0754H18.3728V8.41595Z" fill="black"/>
<path d="M20.0323 8.41595H18.3728V10.0754H20.0323V8.41595Z" fill="black"/>
<path d="M23.3513 8.41595H21.6918V10.0754H23.3513V8.41595Z" fill="black"/>
<path d="M25.0108 8.41595H23.3513V10.0754H25.0108V8.41595Z" fill="black"/>
<path d="M28.3297 8.41595H26.6703V10.0754H28.3297V8.41595Z" fill="black"/>
<path d="M33.3082 8.41595H31.6487V10.0754H33.3082V8.41595Z" fill="black"/>
<path d="M41.6056 8.41595H39.9461V10.0754H41.6056V8.41595Z" fill="black"/>
<path d="M44.9246 8.41595H43.2651V10.0754H44.9246V8.41595Z" fill="black"/>
<path d="M46.5841 8.41595H44.9246V10.0754H46.5841V8.41595Z" fill="black"/>
<path d="M48.2435 8.41595H46.5841V10.0754H48.2435V8.41595Z" fill="black"/>
<path d="M51.5625 8.41595H49.903V10.0754H51.5625V8.41595Z" fill="black"/>
<path d="M5.09698 10.0754H3.4375V11.7349H5.09698V10.0754Z" fill="black"/>
<path d="M8.41595 10.0754H6.75647V11.7349H8.41595V10.0754Z" fill="black"/>
<path d="M10.0754 10.0754H8.41595V11.7349H10.0754V10.0754Z" fill="black"/>
<path d="M11.7349 10.0754H10.0754V11.7349H11.7349V10.0754Z" fill="black"/>
<path d="M15.0539 10.0754H13.3944V11.7349H15.0539V10.0754Z" fill="black"/>
<path d="M20.0323 10.0754H18.3728V11.7349H20.0323V10.0754Z" fill="black"/>
<path d="M25.0108 10.0754H23.3513V11.7349H25.0108V10.0754Z" fill="black"/>
<path d="M28.3297 10.0754H26.6703V11.7349H28.3297V10.0754Z" fill="black"/>
<path d="M34.9677 10.0754H33.3082V11.7349H34.9677V10.0754Z" fill="black"/>
<path d="M38.2866 10.0754H36.6272V11.7349H38.2866V10.0754Z" fill="black"/>
<path d="M41.6056 10.0754H39.9461V11.7349H41.6056V10.0754Z" fill="black"/>
<path d="M44.9246 10.0754H43.2651V11.7349H44.9246V10.0754Z" fill="black"/>
<path d="M46.5841 10.0754H44.9246V11.7349H46.5841V10.0754Z" fill="black"/>
<path d="M48.2435 10.0754H46.5841V11.7349H48.2435V10.0754Z" fill="black"/>
<path d="M51.5625 10.0754H49.903V11.7349H51.5625V10.0754Z" fill="black"/>
<path d="M5.09698 11.7349H3.4375V13.3944H5.09698V11.7349Z" fill="black"/>
<path d="M15.0539 11.7349H13.3944V13.3944H15.0539V11.7349Z" fill="black"/>
<path d="M18.3728 11.7349H16.7134V13.3944H18.3728V11.7349Z" fill="black"/>
<path d="M25.0108 11.7349H23.3513V13.3944H25.0108V11.7349Z" fill="black"/>
<path d="M28.3297 11.7349H26.6703V13.3944H28.3297V11.7349Z" fill="black"/>
<path d="M29.9892 11.7349H28.3297V13.3944H29.9892V11.7349Z" fill="black"/>
<path d="M33.3082 11.7349H31.6487V13.3944H33.3082V11.7349Z" fill="black"/>
<path d="M34.9677 11.7349H33.3082V13.3944H34.9677V11.7349Z" fill="black"/>
<path d="M41.6056 11.7349H39.9461V13.3944H41.6056V11.7349Z" fill="black"/>
<path d="M51.5625 11.7349H49.903V13.3944H51.5625V11.7349Z" fill="black"/>
<path d="M5.09698 13.3944H3.4375V15.0539H5.09698V13.3944Z" fill="black"/>
<path d="M6.75647 13.3944H5.09698V15.0539H6.75647V13.3944Z" fill="black"/>
<path d="M8.41595 13.3944H6.75647V15.0539H8.41595V13.3944Z" fill="black"/>
<path d="M10.0754 13.3944H8.41595V15.0539H10.0754V13.3944Z" fill="black"/>
<path d="M11.7349 13.3944H10.0754V15.0539H11.7349V13.3944Z" fill="black"/>
<path d="M13.3944 13.3944H11.7349V15.0539H13.3944V13.3944Z" fill="black"/>
<path d="M15.0539 13.3944H13.3944V15.0539H15.0539V13.3944Z" fill="black"/>
<path d="M18.3728 13.3944H16.7134V15.0539H18.3728V13.3944Z" fill="black"/>
<path d="M21.6918 13.3944H20.0323V15.0539H21.6918V13.3944Z" fill="black"/>
<path d="M25.0108 13.3944H23.3513V15.0539H25.0108V13.3944Z" fill="black"/>
<path d="M28.3297 13.3944H26.6703V15.0539H28.3297V13.3944Z" fill="black"/>
<path d="M31.6487 13.3944H29.9892V15.0539H31.6487V13.3944Z" fill="black"/>
<path d="M34.9677 13.3944H33.3082V15.0539H34.9677V13.3944Z" fill="black"/>
<path d="M38.2866 13.3944H36.6272V15.0539H38.2866V13.3944Z" fill="black"/>
<path d="M41.6056 13.3944H39.9461V15.0539H41.6056V13.3944Z" fill="black"/>
<path d="M43.2651 13.3944H41.6056V15.0539H43.2651V13.3944Z" fill="black"/>
<path d="M44.9246 13.3944H43.2651V15.0539H44.9246V13.3944Z" fill="black"/>
<path d="M46.5841 13.3944H44.9246V15.0539H46.5841V13.3944Z" fill="black"/>
<path d="M48.2435 13.3944H46.5841V15.0539H48.2435V13.3944Z" fill="black"/>
<path d="M49.903 13.3944H48.2435V15.0539H49.903V13.3944Z" fill="black"/>
<path d="M51.5625 13.3944H49.903V15.0539H51.5625V13.3944Z" fill="black"/>
<path d="M18.3728 15.0539H16.7134V16.7134H18.3728V15.0539Z" fill="black"/>
<path d="M21.6918 15.0539H20.0323V16.7134H21.6918V15.0539Z" fill="black"/>
<path d="M25.0108 15.0539H23.3513V16.7134H25.0108V15.0539Z" fill="black"/>
<path d="M26.6703 15.0539H25.0108V16.7134H26.6703V15.0539Z" fill="black"/>
<path d="M31.6487 15.0539H29.9892V16.7134H31.6487V15.0539Z" fill="black"/>
<path d="M33.3082 15.0539H31.6487V16.7134H33.3082V15.0539Z" fill="black"/>
<path d="M34.9677 15.0539H33.3082V16.7134H34.9677V15.0539Z" fill="black"/>
<path d="M36.6272 15.0539H34.9677V16.7134H36.6272V15.0539Z" fill="black"/>
<path d="M38.2866 15.0539H36.6272V16.7134H38.2866V15.0539Z" fill="black"/>
<path d="M5.09698 16.7134H3.4375V18.3728H5.09698V16.7134Z" fill="black"/>
<path d="M6.75647 16.7134H5.09698V18.3728H6.75647V16.7134Z" fill="black"/>
<path d="M10.0754 16.7134H8.41595V18.3728H10.0754V16.7134Z" fill="black"/>
<path d="M15.0539 16.7134H13.3944V18.3728H15.0539V16.7134Z" fill="black"/>
<path d="M16.7134 16.7134H15.0539V18.3728H16.7134V16.7134Z" fill="black"/>
<path d="M20.0323 16.7134H18.3728V18.3728H20.0323V16.7134Z" fill="black"/>
<path d="M21.6918 16.7134H20.0323V18.3728H21.6918V16.7134Z" fill="black"/>
<path d="M29.9892 16.7134H28.3297V18.3728H29.9892V16.7134Z" fill="black"/>
<path d="M31.6487 16.7134H29.9892V18.3728H31.6487V16.7134Z" fill="black"/>
<path d="M34.9677 16.7134H33.3082V18.3728H34.9677V16.7134Z" fill="black"/>
<path d="M36.6272 16.7134H34.9677V18.3728H36.6272V16.7134Z" fill="black"/>
<path d="M39.9461 16.7134H38.2866V18.3728H39.9461V16.7134Z" fill="black"/>
<path d="M41.6056 16.7134H39.9461V18.3728H41.6056V16.7134Z" fill="black"/>
<path d="M43.2651 16.7134H41.6056V18.3728H43.2651V16.7134Z" fill="black"/>
<path d="M46.5841 16.7134H44.9246V18.3728H46.5841V16.7134Z" fill="black"/>
<path d="M48.2435 16.7134H46.5841V18.3728H48.2435V16.7134Z" fill="black"/>
<path d="M51.5625 16.7134H49.903V18.3728H51.5625V16.7134Z" fill="black"/>
<path d="M8.41595 18.3728H6.75647V20.0323H8.41595V18.3728Z" fill="black"/>
<path d="M11.7349 18.3728H10.0754V20.0323H11.7349V18.3728Z" fill="black"/>
<path d="M13.3944 18.3728H11.7349V20.0323H13.3944V18.3728Z" fill="black"/>
<path d="M18.3728 18.3728H16.7134V20.0323H18.3728V18.3728Z" fill="black"/>
<path d="M23.3513 18.3728H21.6918V20.0323H23.3513V18.3728Z" fill="black"/>
<path d="M25.0108 18.3728H23.3513V20.0323H25.0108V18.3728Z" fill="black"/>
<path d="M28.3297 18.3728H26.6703V20.0323H28.3297V18.3728Z" fill="black"/>
<path d="M31.6487 18.3728H29.9892V20.0323H31.6487V18.3728Z" fill="black"/>
<path d="M34.9677 18.3728H33.3082V20.0323H34.9677V18.3728Z" fill="black"/>
<path d="M36.6272 18.3728H34.9677V20.0323H36.6272V18.3728Z" fill="black"/>
<path d="M43.2651 18.3728H41.6056V20.0323H43.2651V18.3728Z" fill="black"/>
<path d="M44.9246 18.3728H43.2651V20.0323H44.9246V18.3728Z" fill="black"/>
<path d="M48.2435 18.3728H46.5841V20.0323H48.2435V18.3728Z" fill="black"/>
<path d="M51.5625 18.3728H49.903V20.0323H51.5625V18.3728Z" fill="black"/>
<path d="M10.0754 20.0323H8.41595V21.6918H10.0754V20.0323Z" fill="black"/>
<path d="M11.7349 20.0323H10.0754V21.6918H11.7349V20.0323Z" fill="black"/>
<path d="M13.3944 20.0323H11.7349V21.6918H13.3944V20.0323Z" fill="black"/>
<path d="M15.0539 20.0323H13.3944V21.6918H15.0539V20.0323Z" fill="black"/>
<path d="M16.7134 20.0323H15.0539V21.6918H16.7134V20.0323Z" fill="black"/>
<path d="M25.0108 20.0323H23.3513V21.6918H25.0108V20.0323Z" fill="black"/>
<path d="M28.3297 20.0323H26.6703V21.6918H28.3297V20.0323Z" fill="black"/>
<path d="M29.9892 20.0323H28.3297V21.6918H29.9892V20.0323Z" fill="black"/>
<path d="M31.6487 20.0323H29.9892V21.6918H31.6487V20.0323Z" fill="black"/>
<path d="M33.3082 20.0323H31.6487V21.6918H33.3082V20.0323Z" fill="black"/>
<path d="M34.9677 20.0323H33.3082V21.6918H34.9677V20.0323Z" fill="black"/>
<path d="M38.2866 20.0323H36.6272V21.6918H38.2866V20.0323Z" fill="black"/>
<path d="M5.09698 21.6918H3.4375V23.3513H5.09698V21.6918Z" fill="black"/>
<path d="M8.41595 21.6918H6.75647V23.3513H8.41595V21.6918Z" fill="black"/>
<path d="M20.0323 21.6918H18.3728V23.3513H20.0323V21.6918Z" fill="black"/>
<path d="M21.6918 21.6918H20.0323V23.3513H21.6918V21.6918Z" fill="black"/>
<path d="M23.3513 21.6918H21.6918V23.3513H23.3513V21.6918Z" fill="black"/>
<path d="M36.6272 21.6918H34.9677V23.3513H36.6272V21.6918Z" fill="black"/>
<path d="M41.6056 21.6918H39.9461V23.3513H41.6056V21.6918Z" fill="black"/>
<path d="M48.2435 21.6918H46.5841V23.3513H48.2435V21.6918Z" fill="black"/>
<path d="M49.903 21.6918H48.2435V23.3513H49.903V21.6918Z" fill="black"/>
<path d="M10.0754 23.3513H8.41595V25.0108H10.0754V23.3513Z" fill="black"/>
<path d="M15.0539 23.3513H13.3944V25.0108H15.0539V23.3513Z" fill="black"/>
<path d="M16.7134 23.3513H15.0539V25.0108H16.7134V23.3513Z" fill="black"/>
<path d="M18.3728 23.3513H16.7134V25.0108H18.3728V23.3513Z" fill="black"/>
<path d="M20.0323 23.3513H18.3728V25.0108H20.0323V23.3513Z" fill="black"/>
<path d="M26.6703 23.3513H25.0108V25.0108H26.6703V23.3513Z" fill="black"/>
<path d="M28.3297 23.3513H26.6703V25.0108H28.3297V23.3513Z" fill="black"/>
<path d="M31.6487 23.3513H29.9892V25.0108H31.6487V23.3513Z" fill="black"/>
<path d="M33.3082 23.3513H31.6487V25.0108H33.3082V23.3513Z" fill="black"/>
<path d="M34.9677 23.3513H33.3082V25.0108H34.9677V23.3513Z" fill="black"/>
<path d="M38.2866 23.3513H36.6272V25.0108H38.2866V23.3513Z" fill="black"/>
<path d="M41.6056 23.3513H39.9461V25.0108H41.6056V23.3513Z" fill="black"/>
<path d="M43.2651 23.3513H41.6056V25.0108H43.2651V23.3513Z" fill="black"/>
<path d="M44.9246 23.3513H43.2651V25.0108H44.9246V23.3513Z" fill="black"/>
<path d="M51.5625 23.3513H49.903V25.0108H51.5625V23.3513Z" fill="black"/>
<path d="M6.75647 25.0108H5.09698V26.6703H6.75647V25.0108Z" fill="black"/>
<path d="M8.41595 25.0108H6.75647V26.6703H8.41595V25.0108Z" fill="black"/>
<path d="M10.0754 25.0108H8.41595V26.6703H10.0754V25.0108Z" fill="black"/>
<path d="M13.3944 25.0108H11.7349V26.6703H13.3944V25.0108Z" fill="black"/>
<path d="M18.3728 25.0108H16.7134V26.6703H18.3728V25.0108Z" fill="black"/>
<path d="M20.0323 25.0108H18.3728V26.6703H20.0323V25.0108Z" fill="black"/>
<path d="M21.6918 25.0108H20.0323V26.6703H21.6918V25.0108Z" fill="black"/>
<path d="M28.3297 25.0108H26.6703V26.6703H28.3297V25.0108Z" fill="black"/>
<path d="M34.9677 25.0108H33.3082V26.6703H34.9677V25.0108Z" fill="black"/>
<path d="M36.6272 25.0108H34.9677V26.6703H36.6272V25.0108Z" fill="black"/>
<path d="M38.2866 25.0108H36.6272V26.6703H38.2866V25.0108Z" fill="black"/>
<path d="M43.2651 25.0108H41.6056V26.6703H43.2651V25.0108Z" fill="black"/>
<path d="M48.2435 25.0108H46.5841V26.6703H48.2435V25.0108Z" fill="black"/>
<path d="M6.75647 26.6703H5.09698V28.3297H6.75647V26.6703Z" fill="black"/>
<path d="M8.41595 26.6703H6.75647V28.3297H8.41595V26.6703Z" fill="black"/>
<path d="M10.0754 26.6703H8.41595V28.3297H10.0754V26.6703Z" fill="black"/>
<path d="M13.3944 26.6703H11.7349V28.3297H13.3944V26.6703Z" fill="black"/>
<path d="M15.0539 26.6703H13.3944V28.3297H15.0539V26.6703Z" fill="black"/>
<path d="M16.7134 26.6703H15.0539V28.3297H16.7134V26.6703Z" fill="black"/>
<path d="M25.0108 26.6703H23.3513V28.3297H25.0108V26.6703Z" fill="black"/>
<path d="M26.6703 26.6703H25.0108V28.3297H26.6703V26.6703Z" fill="black"/>
<path d="M29.9892 26.6703H28.3297V28.3297H29.9892V26.6703Z" fill="black"/>
<path d="M31.6487 26.6703H29.9892V28.3297H31.6487V26.6703Z" fill="black"/>
<path d="M33.3082 26.6703H31.6487V28.3297H33.3082V26.6703Z" fill="black"/>
<path d="M34.9677 26.6703H33.3082V28.3297H34.9677V26.6703Z" fill="black"/>
<path d="M36.6272 26.6703H34.9677V28.3297H36.6272V26.6703Z" fill="black"/>
<path d="M38.2866 26.6703H36.6272V28.3297H38.2866V26.6703Z" fill="black"/>
<path d="M41.6056 26.6703H39.9461V28.3297H41.6056V26.6703Z" fill="black"/>
<path d="M43.2651 26.6703H41.6056V28.3297H43.2651V26.6703Z" fill="black"/>
<path d="M51.5625 26.6703H49.903V28.3297H51.5625V26.6703Z" fill="black"/>
<path d="M10.0754 28.3297H8.41595V29.9892H10.0754V28.3297Z" fill="black"/>
<path d="M11.7349 28.3297H10.0754V29.9892H11.7349V28.3297Z" fill="black"/>
<path d="M23.3513 28.3297H21.6918V29.9892H23.3513V28.3297Z" fill="black"/>
<path d="M26.6703 28.3297H25.0108V29.9892H26.6703V28.3297Z" fill="black"/>
<path d="M31.6487 28.3297H29.9892V29.9892H31.6487V28.3297Z" fill="black"/>
<path d="M33.3082 28.3297H31.6487V29.9892H33.3082V28.3297Z" fill="black"/>
<path d="M34.9677 28.3297H33.3082V29.9892H34.9677V28.3297Z" fill="black"/>
<path d="M36.6272 28.3297H34.9677V29.9892H36.6272V28.3297Z" fill="black"/>
<path d="M43.2651 28.3297H41.6056V29.9892H43.2651V28.3297Z" fill="black"/>
<path d="M46.5841 28.3297H44.9246V29.9892H46.5841V28.3297Z" fill="black"/>
<path d="M49.903 28.3297H48.2435V29.9892H49.903V28.3297Z" fill="black"/>
<path d="M51.5625 28.3297H49.903V29.9892H51.5625V28.3297Z" fill="black"/>
<path d="M5.09698 29.9892H3.4375V31.6487H5.09698V29.9892Z" fill="black"/>
<path d="M6.75647 29.9892H5.09698V31.6487H6.75647V29.9892Z" fill="black"/>
<path d="M8.41595 29.9892H6.75647V31.6487H8.41595V29.9892Z" fill="black"/>
<path d="M11.7349 29.9892H10.0754V31.6487H11.7349V29.9892Z" fill="black"/>
<path d="M13.3944 29.9892H11.7349V31.6487H13.3944V29.9892Z" fill="black"/>
<path d="M15.0539 29.9892H13.3944V31.6487H15.0539V29.9892Z" fill="black"/>
<path d="M16.7134 29.9892H15.0539V31.6487H16.7134V29.9892Z" fill="black"/>
<path d="M20.0323 29.9892H18.3728V31.6487H20.0323V29.9892Z" fill="black"/>
<path d="M26.6703 29.9892H25.0108V31.6487H26.6703V29.9892Z" fill="black"/>
<path d="M29.9892 29.9892H28.3297V31.6487H29.9892V29.9892Z" fill="black"/>
<path d="M34.9677 29.9892H33.3082V31.6487H34.9677V29.9892Z" fill="black"/>
<path d="M38.2866 29.9892H36.6272V31.6487H38.2866V29.9892Z" fill="black"/>
<path d="M39.9461 29.9892H38.2866V31.6487H39.9461V29.9892Z" fill="black"/>
<path d="M41.6056 29.9892H39.9461V31.6487H41.6056V29.9892Z" fill="black"/>
<path d="M49.903 29.9892H48.2435V31.6487H49.903V29.9892Z" fill="black"/>
<path d="M10.0754 31.6487H8.41595V33.3082H10.0754V31.6487Z" fill="black"/>
<path d="M16.7134 31.6487H15.0539V33.3082H16.7134V31.6487Z" fill="black"/>
<path d="M18.3728 31.6487H16.7134V33.3082H18.3728V31.6487Z" fill="black"/>
<path d="M21.6918 31.6487H20.0323V33.3082H21.6918V31.6487Z" fill="black"/>
<path d="M25.0108 31.6487H23.3513V33.3082H25.0108V31.6487Z" fill="black"/>
<path d="M33.3082 31.6487H31.6487V33.3082H33.3082V31.6487Z" fill="black"/>
<path d="M34.9677 31.6487H33.3082V33.3082H34.9677V31.6487Z" fill="black"/>
<path d="M36.6272 31.6487H34.9677V33.3082H36.6272V31.6487Z" fill="black"/>
<path d="M38.2866 31.6487H36.6272V33.3082H38.2866V31.6487Z" fill="black"/>
<path d="M44.9246 31.6487H43.2651V33.3082H44.9246V31.6487Z" fill="black"/>
<path d="M48.2435 31.6487H46.5841V33.3082H48.2435V31.6487Z" fill="black"/>
<path d="M15.0539 33.3082H13.3944V34.9677H15.0539V33.3082Z" fill="black"/>
<path d="M16.7134 33.3082H15.0539V34.9677H16.7134V33.3082Z" fill="black"/>
<path d="M18.3728 33.3082H16.7134V34.9677H18.3728V33.3082Z" fill="black"/>
<path d="M21.6918 33.3082H20.0323V34.9677H21.6918V33.3082Z" fill="black"/>
<path d="M26.6703 33.3082H25.0108V34.9677H26.6703V33.3082Z" fill="black"/>
<path d="M38.2866 33.3082H36.6272V34.9677H38.2866V33.3082Z" fill="black"/>
<path d="M39.9461 33.3082H38.2866V34.9677H39.9461V33.3082Z" fill="black"/>
<path d="M43.2651 33.3082H41.6056V34.9677H43.2651V33.3082Z" fill="black"/>
<path d="M48.2435 33.3082H46.5841V34.9677H48.2435V33.3082Z" fill="black"/>
<path d="M51.5625 33.3082H49.903V34.9677H51.5625V33.3082Z" fill="black"/>
<path d="M5.09698 34.9677H3.4375V36.6272H5.09698V34.9677Z" fill="black"/>
<path d="M8.41595 34.9677H6.75647V36.6272H8.41595V34.9677Z" fill="black"/>
<path d="M11.7349 34.9677H10.0754V36.6272H11.7349V34.9677Z" fill="black"/>
<path d="M13.3944 34.9677H11.7349V36.6272H13.3944V34.9677Z" fill="black"/>
<path d="M16.7134 34.9677H15.0539V36.6272H16.7134V34.9677Z" fill="black"/>
<path d="M18.3728 34.9677H16.7134V36.6272H18.3728V34.9677Z" fill="black"/>
<path d="M20.0323 34.9677H18.3728V36.6272H20.0323V34.9677Z" fill="black"/>
<path d="M23.3513 34.9677H21.6918V36.6272H23.3513V34.9677Z" fill="black"/>
<path d="M26.6703 34.9677H25.0108V36.6272H26.6703V34.9677Z" fill="black"/>
<path d="M28.3297 34.9677H26.6703V36.6272H28.3297V34.9677Z" fill="black"/>
<path d="M29.9892 34.9677H28.3297V36.6272H29.9892V34.9677Z" fill="black"/>
<path d="M41.6056 34.9677H39.9461V36.6272H41.6056V34.9677Z" fill="black"/>
<path d="M46.5841 34.9677H44.9246V36.6272H46.5841V34.9677Z" fill="black"/>
<path d="M48.2435 34.9677H46.5841V36.6272H48.2435V34.9677Z" fill="black"/>
<path d="M51.5625 34.9677H49.903V36.6272H51.5625V34.9677Z" fill="black"/>
<path d="M5.09698 36.6272H3.4375V38.2866H5.09698V36.6272Z" fill="black"/>
<path d="M8.41595 36.6272H6.75647V38.2866H8.41595V36.6272Z" fill="black"/>
<path d="M10.0754 36.6272H8.41595V38.2866H10.0754V36.6272Z" fill="black"/>
<path d="M13.3944 36.6272H11.7349V38.2866H13.3944V36.6272Z" fill="black"/>
<path d="M15.0539 36.6272H13.3944V38.2866H15.0539V36.6272Z" fill="black"/>
<path d="M16.7134 36.6272H15.0539V38.2866H16.7134V36.6272Z" fill="black"/>
<path d="M20.0323 36.6272H18.3728V38.2866H20.0323V36.6272Z" fill="black"/>
<path d="M23.3513 36.6272H21.6918V38.2866H23.3513V36.6272Z" fill="black"/>
<path d="M28.3297 36.6272H26.6703V38.2866H28.3297V36.6272Z" fill="black"/>
<path d="M33.3082 36.6272H31.6487V38.2866H33.3082V36.6272Z" fill="black"/>
<path d="M38.2866 36.6272H36.6272V38.2866H38.2866V36.6272Z" fill="black"/>
<path d="M39.9461 36.6272H38.2866V38.2866H39.9461V36.6272Z" fill="black"/>
<path d="M41.6056 36.6272H39.9461V38.2866H41.6056V36.6272Z" fill="black"/>
<path d="M43.2651 36.6272H41.6056V38.2866H43.2651V36.6272Z" fill="black"/>
<path d="M44.9246 36.6272H43.2651V38.2866H44.9246V36.6272Z" fill="black"/>
<path d="M46.5841 36.6272H44.9246V38.2866H46.5841V36.6272Z" fill="black"/>
<path d="M49.903 36.6272H48.2435V38.2866H49.903V36.6272Z" fill="black"/>
<path d="M51.5625 36.6272H49.903V38.2866H51.5625V36.6272Z" fill="black"/>
<path d="M20.0323 38.2866H18.3728V39.9461H20.0323V38.2866Z" fill="black"/>
<path d="M23.3513 38.2866H21.6918V39.9461H23.3513V38.2866Z" fill="black"/>
<path d="M28.3297 38.2866H26.6703V39.9461H28.3297V38.2866Z" fill="black"/>
<path d="M29.9892 38.2866H28.3297V39.9461H29.9892V38.2866Z" fill="black"/>
<path d="M31.6487 38.2866H29.9892V39.9461H31.6487V38.2866Z" fill="black"/>
<path d="M34.9677 38.2866H33.3082V39.9461H34.9677V38.2866Z" fill="black"/>
<path d="M36.6272 38.2866H34.9677V39.9461H36.6272V38.2866Z" fill="black"/>
<path d="M38.2866 38.2866H36.6272V39.9461H38.2866V38.2866Z" fill="black"/>
<path d="M44.9246 38.2866H43.2651V39.9461H44.9246V38.2866Z" fill="black"/>
<path d="M46.5841 38.2866H44.9246V39.9461H46.5841V38.2866Z" fill="black"/>
<path d="M49.903 38.2866H48.2435V39.9461H49.903V38.2866Z" fill="black"/>
<path d="M5.09698 39.9461H3.4375V41.6056H5.09698V39.9461Z" fill="black"/>
<path d="M6.75647 39.9461H5.09698V41.6056H6.75647V39.9461Z" fill="black"/>
<path d="M8.41595 39.9461H6.75647V41.6056H8.41595V39.9461Z" fill="black"/>
<path d="M10.0754 39.9461H8.41595V41.6056H10.0754V39.9461Z" fill="black"/>
<path d="M11.7349 39.9461H10.0754V41.6056H11.7349V39.9461Z" fill="black"/>
<path d="M13.3944 39.9461H11.7349V41.6056H13.3944V39.9461Z" fill="black"/>
<path d="M15.0539 39.9461H13.3944V41.6056H15.0539V39.9461Z" fill="black"/>
<path d="M18.3728 39.9461H16.7134V41.6056H18.3728V39.9461Z" fill="black"/>
<path d="M20.0323 39.9461H18.3728V41.6056H20.0323V39.9461Z" fill="black"/>
<path d="M23.3513 39.9461H21.6918V41.6056H23.3513V39.9461Z" fill="black"/>
<path d="M26.6703 39.9461H25.0108V41.6056H26.6703V39.9461Z" fill="black"/>
<path d="M29.9892 39.9461H28.3297V41.6056H29.9892V39.9461Z" fill="black"/>
<path d="M36.6272 39.9461H34.9677V41.6056H36.6272V39.9461Z" fill="black"/>
<path d="M38.2866 39.9461H36.6272V41.6056H38.2866V39.9461Z" fill="black"/>
<path d="M41.6056 39.9461H39.9461V41.6056H41.6056V39.9461Z" fill="black"/>
<path d="M44.9246 39.9461H43.2651V41.6056H44.9246V39.9461Z" fill="black"/>
<path d="M49.903 39.9461H48.2435V41.6056H49.903V39.9461Z" fill="black"/>
<path d="M5.09698 41.6056H3.4375V43.2651H5.09698V41.6056Z" fill="black"/>
<path d="M15.0539 41.6056H13.3944V43.2651H15.0539V41.6056Z" fill="black"/>
<path d="M20.0323 41.6056H18.3728V43.2651H20.0323V41.6056Z" fill="black"/>
<path d="M21.6918 41.6056H20.0323V43.2651H21.6918V41.6056Z" fill="black"/>
<path d="M33.3082 41.6056H31.6487V43.2651H33.3082V41.6056Z" fill="black"/>
<path d="M34.9677 41.6056H33.3082V43.2651H34.9677V41.6056Z" fill="black"/>
<path d="M38.2866 41.6056H36.6272V43.2651H38.2866V41.6056Z" fill="black"/>
<path d="M44.9246 41.6056H43.2651V43.2651H44.9246V41.6056Z" fill="black"/>
<path d="M48.2435 41.6056H46.5841V43.2651H48.2435V41.6056Z" fill="black"/>
<path d="M51.5625 41.6056H49.903V43.2651H51.5625V41.6056Z" fill="black"/>
<path d="M5.09698 43.2651H3.4375V44.9246H5.09698V43.2651Z" fill="black"/>
<path d="M8.41595 43.2651H6.75647V44.9246H8.41595V43.2651Z" fill="black"/>
<path d="M10.0754 43.2651H8.41595V44.9246H10.0754V43.2651Z" fill="black"/>
<path d="M11.7349 43.2651H10.0754V44.9246H11.7349V43.2651Z" fill="black"/>
<path d="M15.0539 43.2651H13.3944V44.9246H15.0539V43.2651Z" fill="black"/>
<path d="M20.0323 43.2651H18.3728V44.9246H20.0323V43.2651Z" fill="black"/>
<path d="M21.6918 43.2651H20.0323V44.9246H21.6918V43.2651Z" fill="black"/>
<path d="M28.3297 43.2651H26.6703V44.9246H28.3297V43.2651Z" fill="black"/>
<path d="M29.9892 43.2651H28.3297V44.9246H29.9892V43.2651Z" fill="black"/>
<path d="M31.6487 43.2651H29.9892V44.9246H31.6487V43.2651Z" fill="black"/>
<path d="M34.9677 43.2651H33.3082V44.9246H34.9677V43.2651Z" fill="black"/>
<path d="M38.2866 43.2651H36.6272V44.9246H38.2866V43.2651Z" fill="black"/>
<path d="M39.9461 43.2651H38.2866V44.9246H39.9461V43.2651Z" fill="black"/>
<path d="M41.6056 43.2651H39.9461V44.9246H41.6056V43.2651Z" fill="black"/>
<path d="M43.2651 43.2651H41.6056V44.9246H43.2651V43.2651Z" fill="black"/>
<path d="M44.9246 43.2651H43.2651V44.9246H44.9246V43.2651Z" fill="black"/>
<path d="M46.5841 43.2651H44.9246V44.9246H46.5841V43.2651Z" fill="black"/>
<path d="M49.903 43.2651H48.2435V44.9246H49.903V43.2651Z" fill="black"/>
<path d="M5.09698 44.9246H3.4375V46.5841H5.09698V44.9246Z" fill="black"/>
<path d="M8.41595 44.9246H6.75647V46.5841H8.41595V44.9246Z" fill="black"/>
<path d="M10.0754 44.9246H8.41595V46.5841H10.0754V44.9246Z" fill="black"/>
<path d="M11.7349 44.9246H10.0754V46.5841H11.7349V44.9246Z" fill="black"/>
<path d="M15.0539 44.9246H13.3944V46.5841H15.0539V44.9246Z" fill="black"/>
<path d="M18.3728 44.9246H16.7134V46.5841H18.3728V44.9246Z" fill="black"/>
<path d="M25.0108 44.9246H23.3513V46.5841H25.0108V44.9246Z" fill="black"/>
<path d="M31.6487 44.9246H29.9892V46.5841H31.6487V44.9246Z" fill="black"/>
<path d="M33.3082 44.9246H31.6487V46.5841H33.3082V44.9246Z" fill="black"/>
<path d="M38.2866 44.9246H36.6272V46.5841H38.2866V44.9246Z" fill="black"/>
<path d="M39.9461 44.9246H38.2866V46.5841H39.9461V44.9246Z" fill="black"/>
<path d="M41.6056 44.9246H39.9461V46.5841H41.6056V44.9246Z" fill="black"/>
<path d="M43.2651 44.9246H41.6056V46.5841H43.2651V44.9246Z" fill="black"/>
<path d="M46.5841 44.9246H44.9246V46.5841H46.5841V44.9246Z" fill="black"/>
<path d="M49.903 44.9246H48.2435V46.5841H49.903V44.9246Z" fill="black"/>
<path d="M51.5625 44.9246H49.903V46.5841H51.5625V44.9246Z" fill="black"/>
<path d="M5.09698 46.5841H3.4375V48.2435H5.09698V46.5841Z" fill="black"/>
<path d="M8.41595 46.5841H6.75647V48.2435H8.41595V46.5841Z" fill="black"/>
<path d="M10.0754 46.5841H8.41595V48.2435H10.0754V46.5841Z" fill="black"/>
<path d="M11.7349 46.5841H10.0754V48.2435H11.7349V46.5841Z" fill="black"/>
<path d="M15.0539 46.5841H13.3944V48.2435H15.0539V46.5841Z" fill="black"/>
<path d="M21.6918 46.5841H20.0323V48.2435H21.6918V46.5841Z" fill="black"/>
<path d="M25.0108 46.5841H23.3513V48.2435H25.0108V46.5841Z" fill="black"/>
<path d="M26.6703 46.5841H25.0108V48.2435H26.6703V46.5841Z" fill="black"/>
<path d="M28.3297 46.5841H26.6703V48.2435H28.3297V46.5841Z" fill="black"/>
<path d="M33.3082 46.5841H31.6487V48.2435H33.3082V46.5841Z" fill="black"/>
<path d="M34.9677 46.5841H33.3082V48.2435H34.9677V46.5841Z" fill="black"/>
<path d="M36.6272 46.5841H34.9677V48.2435H36.6272V46.5841Z" fill="black"/>
<path d="M38.2866 46.5841H36.6272V48.2435H38.2866V46.5841Z" fill="black"/>
<path d="M39.9461 46.5841H38.2866V48.2435H39.9461V46.5841Z" fill="black"/>
<path d="M44.9246 46.5841H43.2651V48.2435H44.9246V46.5841Z" fill="black"/>
<path d="M48.2435 46.5841H46.5841V48.2435H48.2435V46.5841Z" fill="black"/>
<path d="M5.09698 48.2435H3.4375V49.903H5.09698V48.2435Z" fill="black"/>
<path d="M15.0539 48.2435H13.3944V49.903H15.0539V48.2435Z" fill="black"/>
<path d="M18.3728 48.2435H16.7134V49.903H18.3728V48.2435Z" fill="black"/>
<path d="M21.6918 48.2435H20.0323V49.903H21.6918V48.2435Z" fill="black"/>
<path d="M26.6703 48.2435H25.0108V49.903H26.6703V48.2435Z" fill="black"/>
<path d="M28.3297 48.2435H26.6703V49.903H28.3297V48.2435Z" fill="black"/>
<path d="M29.9892 48.2435H28.3297V49.903H29.9892V48.2435Z" fill="black"/>
<path d="M31.6487 48.2435H29.9892V49.903H31.6487V48.2435Z" fill="black"/>
<path d="M33.3082 48.2435H31.6487V49.903H33.3082V48.2435Z" fill="black"/>
<path d="M39.9461 48.2435H38.2866V49.903H39.9461V48.2435Z" fill="black"/>
<path d="M41.6056 48.2435H39.9461V49.903H41.6056V48.2435Z" fill="black"/>
<path d="M49.903 48.2435H48.2435V49.903H49.903V48.2435Z" fill="black"/>
<path d="M51.5625 48.2435H49.903V49.903H51.5625V48.2435Z" fill="black"/>
<path d="M5.09698 49.903H3.4375V51.5625H5.09698V49.903Z" fill="black"/>
<path d="M6.75647 49.903H5.09698V51.5625H6.75647V49.903Z" fill="black"/>
<path d="M8.41595 49.903H6.75647V51.5625H8.41595V49.903Z" fill="black"/>
<path d="M10.0754 49.903H8.41595V51.5625H10.0754V49.903Z" fill="black"/>
<path d="M11.7349 49.903H10.0754V51.5625H11.7349V49.903Z" fill="black"/>
<path d="M13.3944 49.903H11.7349V51.5625H13.3944V49.903Z" fill="black"/>
<path d="M15.0539 49.903H13.3944V51.5625H15.0539V49.903Z" fill="black"/>
<path d="M18.3728 49.903H16.7134V51.5625H18.3728V49.903Z" fill="black"/>
<path d="M20.0323 49.903H18.3728V51.5625H20.0323V49.903Z" fill="black"/>
<path d="M23.3513 49.903H21.6918V51.5625H23.3513V49.903Z" fill="black"/>
<path d="M26.6703 49.903H25.0108V51.5625H26.6703V49.903Z" fill="black"/>
<path d="M28.3297 49.903H26.6703V51.5625H28.3297V49.903Z" fill="black"/>
<path d="M39.9461 49.903H38.2866V51.5625H39.9461V49.903Z" fill="black"/>
<path d="M46.5841 49.903H44.9246V51.5625H46.5841V49.903Z" fill="black"/>
<path d="M48.2435 49.903H46.5841V51.5625H48.2435V49.903Z" fill="black"/>
</g>
<defs>
<clipPath id="clip0_3167_10178">
<rect width="55" height="55" fill="white"/>
</clipPath>
</defs>
</svg>
