<svg width="17" height="17" viewBox="0 0 17 17" fill="none" xmlns="http://www.w3.org/2000/svg">
<mask id="mask0_2694_9463" style="mask-type:alpha" maskUnits="userSpaceOnUse" x="0" y="0" width="17" height="17">
<rect x="0.897461" y="0.734375" width="16" height="16" fill="#D9D9D9"/>
</mask>
<g mask="url(#mask0_2694_9463)">
<path d="M4.29779 11.4337C4.05334 11.0115 3.87001 10.5782 3.74779 10.1337C3.62556 9.68928 3.56445 9.23372 3.56445 8.76706C3.56445 7.27817 4.08112 6.0115 5.11445 4.96706C6.14779 3.92261 7.4089 3.40039 8.89779 3.40039H9.01445L7.94779 2.33372L8.88112 1.40039L11.5478 4.06706L8.88112 6.73372L7.94779 5.80039L9.01445 4.73372H8.89779C7.78668 4.73372 6.84223 5.12539 6.06445 5.90872C5.28668 6.69206 4.89779 7.64484 4.89779 8.76706C4.89779 9.05595 4.93112 9.33928 4.99779 9.61706C5.06445 9.89484 5.16445 10.1671 5.29779 10.4337L4.29779 11.4337ZM8.91445 16.0671L6.24779 13.4004L8.91445 10.7337L9.84779 11.6671L8.78112 12.7337H8.89779C10.0089 12.7337 10.9533 12.3421 11.7311 11.5587C12.5089 10.7754 12.8978 9.82261 12.8978 8.70039C12.8978 8.4115 12.8645 8.12817 12.7978 7.85039C12.7311 7.57261 12.6311 7.30039 12.4978 7.03372L13.4978 6.03372C13.7422 6.45595 13.9256 6.88928 14.0478 7.33372C14.17 7.77817 14.2311 8.23372 14.2311 8.70039C14.2311 10.1893 13.7145 11.4559 12.6811 12.5004C11.6478 13.5448 10.3867 14.0671 8.89779 14.0671H8.78112L9.84779 15.1337L8.91445 16.0671Z" fill="#1C1B1F"/>
</g>
</svg>
