<svg width="24" height="24" viewBox="0 0 24 24" fill="none" xmlns="http://www.w3.org/2000/svg">
<mask id="mask0_1933_9208" style="mask-type:alpha" maskUnits="userSpaceOnUse" x="0" y="0" width="24" height="24">
<rect width="24" height="24" fill="#D9D9D9"/>
</mask>
<g mask="url(#mask0_1933_9208)">
<path d="M11.9998 20C9.76642 20 7.87476 19.225 6.32476 17.675C4.77476 16.125 3.99976 14.2333 3.99976 12C3.99976 9.76667 4.77476 7.875 6.32476 6.325C7.87476 4.775 9.76642 4 11.9998 4C13.1498 4 14.2498 4.2375 15.2998 4.7125C16.3498 5.1875 17.2498 5.86667 17.9998 6.75V4H19.9998V11H12.9998V9H17.1998C16.6664 8.06667 15.9373 7.33333 15.0123 6.8C14.0873 6.26667 13.0831 6 11.9998 6C10.3331 6 8.91642 6.58333 7.74976 7.75C6.58309 8.91667 5.99976 10.3333 5.99976 12C5.99976 13.6667 6.58309 15.0833 7.74976 16.25C8.91642 17.4167 10.3331 18 11.9998 18C13.2831 18 14.4414 17.6333 15.4748 16.9C16.5081 16.1667 17.2331 15.2 17.6498 14H19.7498C19.2831 15.7667 18.3331 17.2083 16.8998 18.325C15.4664 19.4417 13.8331 20 11.9998 20Z" fill="white"/>
</g>
</svg>
