<svg width="25" height="25" viewBox="0 0 25 25" fill="none" xmlns="http://www.w3.org/2000/svg">
<mask id="mask0_408_2983" style="mask-type:alpha" maskUnits="userSpaceOnUse" x="0" y="0" width="25" height="25">
<rect x="0.203125" y="0.484863" width="24" height="24" fill="#D9D9D9"/>
</mask>
<g mask="url(#mask0_408_2983)">
<path d="M12.2031 22.4849C10.8198 22.4849 9.51979 22.2224 8.30312 21.6974C7.08646 21.1724 6.02812 20.4599 5.12812 19.5599C4.22812 18.6599 3.51563 17.6015 2.99063 16.3849C2.46562 15.1682 2.20312 13.8682 2.20312 12.4849H4.20312C4.20312 13.5849 4.41146 14.6224 4.82812 15.5974C5.24479 16.5724 5.81563 17.4224 6.54063 18.1474C7.26563 18.8724 8.11563 19.4474 9.09063 19.8724C10.0656 20.2974 11.1031 20.5099 12.2031 20.5099C14.4365 20.5099 16.3281 19.7349 17.8781 18.1849C19.4281 16.6349 20.2031 14.7432 20.2031 12.5099C20.2031 10.2765 19.4281 8.38486 17.8781 6.83486C16.3281 5.28486 14.4365 4.50986 12.2031 4.50986C10.7198 4.50986 9.37396 4.87236 8.16563 5.59736C6.95729 6.32236 6.00313 7.28486 5.30313 8.48486H8.20312V10.4849H2.20312V4.48486H4.20312V6.48486C5.11979 5.2682 6.26979 4.29736 7.65313 3.57236C9.03646 2.84736 10.5531 2.48486 12.2031 2.48486C13.5865 2.48486 14.8865 2.74736 16.1031 3.27236C17.3198 3.79736 18.3781 4.50986 19.2781 5.40986C20.1781 6.30986 20.8906 7.3682 21.4156 8.58486C21.9406 9.80153 22.2031 11.1015 22.2031 12.4849C22.2031 13.8682 21.9406 15.1682 21.4156 16.3849C20.8906 17.6015 20.1781 18.6599 19.2781 19.5599C18.3781 20.4599 17.3198 21.1724 16.1031 21.6974C14.8865 22.2224 13.5865 22.4849 12.2031 22.4849Z" fill="#161617"/>
</g>
</svg>
