<svg width="16" height="16" viewBox="0 0 16 16" fill="none" xmlns="http://www.w3.org/2000/svg">
<mask id="mask0_2853_19244" style="mask-type:alpha" maskUnits="userSpaceOnUse" x="0" y="0" width="16" height="16">
<rect width="16" height="16" fill="#D9D9D9"/>
</mask>
<g mask="url(#mask0_2853_19244)">
<path d="M13.1833 15.0834L11.4333 13.3334H2.66663V11.4667C2.66663 11.0889 2.76385 10.7417 2.95829 10.425C3.15274 10.1084 3.41107 9.8667 3.73329 9.70003C4.23329 9.44448 4.74163 9.23892 5.25829 9.08337C5.77496 8.92781 6.29996 8.81114 6.83329 8.73337L0.916626 2.8167L1.86663 1.8667L14.1333 14.1334L13.1833 15.0834ZM3.99996 12H10.1L8.09996 10H7.99996C7.37774 10 6.76107 10.075 6.14996 10.225C5.53885 10.375 4.93329 10.6 4.33329 10.9C4.23329 10.9556 4.15274 11.0334 4.09163 11.1334C4.03052 11.2334 3.99996 11.3445 3.99996 11.4667V12ZM12.2666 9.70003C12.5888 9.85559 12.8444 10.0917 13.0333 10.4084C13.2222 10.725 13.3222 11.0667 13.3333 11.4334L11.1 9.20003C11.3 9.27781 11.4972 9.35559 11.6916 9.43337C11.8861 9.51114 12.0777 9.60003 12.2666 9.70003ZM9.46663 7.5667L8.48329 6.58337C8.73885 6.48337 8.9444 6.31948 9.09996 6.0917C9.25552 5.86392 9.33329 5.61114 9.33329 5.33337C9.33329 4.9667 9.20274 4.65281 8.94163 4.3917C8.68052 4.13059 8.36663 4.00003 7.99996 4.00003C7.72218 4.00003 7.4694 4.07781 7.24163 4.23337C7.01385 4.38892 6.84996 4.59448 6.74996 4.85003L5.76663 3.8667C6.02218 3.48892 6.3444 3.19448 6.73329 2.98337C7.12218 2.77225 7.5444 2.6667 7.99996 2.6667C8.73329 2.6667 9.36107 2.92781 9.88329 3.45003C10.4055 3.97225 10.6666 4.60003 10.6666 5.33337C10.6666 5.78892 10.5611 6.21114 10.35 6.60003C10.1388 6.98892 9.8444 7.31114 9.46663 7.5667Z" fill="#1C1C1C"/>
</g>
</svg>
