<svg width="25" height="24" viewBox="0 0 25 24" fill="none" xmlns="http://www.w3.org/2000/svg">
<mask id="mask0_2559_8987" style="mask-type:alpha" maskUnits="userSpaceOnUse" x="0" y="0" width="25" height="24">
<rect x="0.5" width="24" height="24" fill="#D9D9D9"/>
</mask>
<g mask="url(#mask0_2559_8987)">
<path d="M21.5 7V19C21.5 19.55 21.3042 20.0208 20.9125 20.4125C20.5208 20.8042 20.05 21 19.5 21H5.5C4.95 21 4.47917 20.8042 4.0875 20.4125C3.69583 20.0208 3.5 19.55 3.5 19V5C3.5 4.45 3.69583 3.97917 4.0875 3.5875C4.47917 3.19583 4.95 3 5.5 3H17.5L21.5 7ZM19.5 7.85L16.65 5H5.5V19H19.5V7.85ZM12.5 18C13.3333 18 14.0417 17.7083 14.625 17.125C15.2083 16.5417 15.5 15.8333 15.5 15C15.5 14.1667 15.2083 13.4583 14.625 12.875C14.0417 12.2917 13.3333 12 12.5 12C11.6667 12 10.9583 12.2917 10.375 12.875C9.79167 13.4583 9.5 14.1667 9.5 15C9.5 15.8333 9.79167 16.5417 10.375 17.125C10.9583 17.7083 11.6667 18 12.5 18ZM6.5 10H15.5V6H6.5V10Z" fill="#C0C0C0"/>
</g>
</svg>
