<svg width="25" height="25" viewBox="0 0 25 25" fill="none" xmlns="http://www.w3.org/2000/svg">
<mask id="mask0_1505_5884" style="mask-type:alpha" maskUnits="userSpaceOnUse" x="0" y="0" width="25" height="25">
<rect x="0.748535" y="0.296875" width="24" height="24" fill="#D9D9D9"/>
</mask>
<g mask="url(#mask0_1505_5884)">
<path d="M11.7485 19.2969H13.7485V15.1219L15.3485 16.7219L16.7485 15.2969L12.7485 11.2969L8.74854 15.2969L10.1735 16.6969L11.7485 15.1219V19.2969ZM6.74854 22.2969C6.19854 22.2969 5.7277 22.101 5.33604 21.7094C4.94437 21.3177 4.74854 20.8469 4.74854 20.2969V4.29688C4.74854 3.74688 4.94437 3.27604 5.33604 2.88438C5.7277 2.49271 6.19854 2.29688 6.74854 2.29688H14.7485L20.7485 8.29688V20.2969C20.7485 20.8469 20.5527 21.3177 20.161 21.7094C19.7694 22.101 19.2985 22.2969 18.7485 22.2969H6.74854ZM13.7485 9.29688V4.29688H6.74854V20.2969H18.7485V9.29688H13.7485Z" fill="#161617"/>
</g>
</svg>
