<svg width="24" height="24" viewBox="0 0 24 24" fill="none" xmlns="http://www.w3.org/2000/svg">
<mask id="mask0_215_1926" style="mask-type:alpha" maskUnits="userSpaceOnUse" x="0" y="0" width="24" height="24">
<rect width="24" height="24" fill="#D9D9D9"/>
</mask>
<g mask="url(#mask0_215_1926)">
<path d="M3.02502 17V7C3.02502 6.45 3.22086 5.97917 3.61252 5.5875C4.00419 5.19583 4.47502 5 5.02502 5H19C19.55 5 20.0209 5.19583 20.4125 5.5875C20.8042 5.97917 21 6.45 21 7V17C21 17.55 20.8042 18.0208 20.4125 18.4125C20.0209 18.8042 19.55 19 19 19H5.02502C4.47502 19 4.00419 18.8042 3.61252 18.4125C3.22086 18.0208 3.02502 17.55 3.02502 17ZM5.00002 17H8.32502V7H5.00002V17ZM10.325 17H13.65V7H10.325V17ZM15.65 17H18.975V7H15.65V17Z" fill="#1C1B1F"/>
</g>
</svg>
